HIERARCHY
ROOT Hips
{
	OFFSET 0.000000 0.000000 0.000000
	CHANNELS 6 Xposition Yposition Zposition Xrotation Yrotation Zrotation
	JOINT LeftUpLeg_virtual
	{
		OFFSET 0.000000 0.000000 0.000000
		CHANNELS 3 Xrotation Yrotation Zrotation
		JOINT LeftUpLeg
		{
			OFFSET 11.394100 -6.187798 -0.413800
			CHANNELS 3 Xrotation Yrotation Zrotation
			JOINT LeftLeg
			{
				OFFSET 0.430247 -32.302673 3.732800
				CHANNELS 3 Xrotation Yrotation Zrotation
				JOINT LeftFoot
				{
					OFFSET -0.430247 -48.264931 -6.423300
					CHANNELS 3 Xrotation Yrotation Zrotation
					JOINT LeftToeBase
					{
						OFFSET 4.230900 -16.068199 23.438400
						CHANNELS 3 Xrotation Yrotation Zrotation
						JOINT LeftToe_End
						{
							OFFSET 4.510700 0.695400 19.974600
							CHANNELS 3 Xrotation Yrotation Zrotation
							End Site
							{
								OFFSET 0 0 0
							}
						}
					}
				}
			}
		}
	}
	JOINT RightUpLeg_virtual
	{
		OFFSET 0.000000 0.000000 0.000000
		CHANNELS 3 Xrotation Yrotation Zrotation
		JOINT RightUpLeg
		{
			OFFSET -11.333700 -6.187798 -0.413800
			CHANNELS 3 Xrotation Yrotation Zrotation
			JOINT RightLeg
			{
				OFFSET -0.430392 -32.302628 3.733000
				CHANNELS 3 Xrotation Yrotation Zrotation
				JOINT RightFoot
				{
					OFFSET 0.430392 -48.264973 -6.423500
					CHANNELS 3 Xrotation Yrotation Zrotation
					JOINT RightToeBase
					{
						OFFSET -4.230900 -16.068199 23.438400
						CHANNELS 3 Xrotation Yrotation Zrotation
						JOINT RightToe_End
						{
							OFFSET -4.510700 0.695400 19.974600
							CHANNELS 3 Xrotation Yrotation Zrotation
							End Site
							{
								OFFSET 0 0 0
							}
						}
					}
				}
			}
		}
	}
	JOINT Spine_virtual
	{
		OFFSET 0.000000 0.000000 0.000000
		CHANNELS 3 Xrotation Yrotation Zrotation
		JOINT Spine
		{
			OFFSET -0.002400 12.777504 0.315300
			CHANNELS 3 Xrotation Yrotation Zrotation
			JOINT Spine1
			{
				OFFSET -0.002067 5.816869 0.032633
				CHANNELS 3 Xrotation Yrotation Zrotation
				JOINT Spine1_split
				{
					OFFSET -0.002067 5.816869 0.032633
					CHANNELS 3 Xrotation Yrotation Zrotation
					JOINT Spine2
					{
						OFFSET -0.002067 5.816869 0.032633
						CHANNELS 3 Xrotation Yrotation Zrotation
						JOINT Neck_virtual
						{
							OFFSET 0.000000 0.000000 0.000000
							CHANNELS 3 Xrotation Yrotation Zrotation
							JOINT Neck
							{
								OFFSET -0.003700 21.199493 -0.826900
								CHANNELS 3 Xrotation Yrotation Zrotation
								JOINT Head
								{
									OFFSET 0.000000 20.442200 4.834800
									CHANNELS 3 Xrotation Yrotation Zrotation
									JOINT HeadTop_End
									{
										OFFSET 0.000000 34.668396 4.968400
										CHANNELS 3 Xrotation Yrotation Zrotation
										End Site
										{
											OFFSET 0 0 0
										}
									}
								}
							}
						}
						JOINT LeftShoulder_virtual
						{
							OFFSET 0.000000 0.000000 0.000000
							CHANNELS 3 Xrotation Yrotation Zrotation
							JOINT LeftShoulder
							{
								OFFSET 3.288150 8.794197 -1.372250
								CHANNELS 3 Xrotation Yrotation Zrotation
								JOINT LeftShoulder_split
								{
									OFFSET 3.288150 8.794197 -1.372250
									CHANNELS 3 Xrotation Yrotation Zrotation
									JOINT LeftArm
									{
										OFFSET 11.953299 -2.279007 -0.146200
										CHANNELS 3 Xrotation Yrotation Zrotation
										JOINT LeftForeArm
										{
											OFFSET 18.448900 0.000000 0.000000
											CHANNELS 3 Xrotation Yrotation Zrotation
											JOINT LeftHand
											{
												OFFSET 29.527798 0.000000 0.000000
												CHANNELS 3 Xrotation Yrotation Zrotation
												End Site
												{
													OFFSET 0 0 0
												}
											}
										}
									}
								}
							}
						}
						JOINT RightShoulder_virtual
						{
							OFFSET 0.000000 0.000000 0.000000
							CHANNELS 3 Xrotation Yrotation Zrotation
							JOINT RightShoulder
							{
								OFFSET -3.249400 8.794197 -1.372250
								CHANNELS 3 Xrotation Yrotation Zrotation
								JOINT RightShoulder_split
								{
									OFFSET -3.249400 8.794197 -1.372250
									CHANNELS 3 Xrotation Yrotation Zrotation
									JOINT RightArm
									{
										OFFSET -11.953299 -2.279007 -0.146200
										CHANNELS 3 Xrotation Yrotation Zrotation
										JOINT RightForeArm
										{
											OFFSET -18.448900 0.000000 0.000000
											CHANNELS 3 Xrotation Yrotation Zrotation
											JOINT RightHand
											{
												OFFSET -29.527802 0.000000 0.000000
												CHANNELS 3 Xrotation Yrotation Zrotation
												End Site
												{
													OFFSET 0 0 0
												}
											}
										}
									}
								}
							}
						}
					}
				}
			}
		}
	}
}
MOTION
Frames: 6
Frame Time: 0.03333333
8.200836 98.206444 6.554218 0.000000 0.000000 0.000000 -4.623118 11.345621 7.272399 -15.357262 -3.464007 -1.913243 21.850123 6.505427 -4.019232 -2.439104 10.312349 -0.492700 -1.096975 0.326004 -0.056587 0.000000 0.000000 0.000000 -4.139038 11.535757 6.792591 6.281414 -11.303916 -17.288788 19.314691 -11.948263 -0.783861 -7.483049 -28.474843 22.483210 -5.320865 0.744848 -0.688490 0.000000 0.000000 0.000000 -0.059558 11.081004 5.882845 3.934116 3.320197 13.187103 7.461014 6.016298 1.255234 0.689375 -0.996094 0.363104 0.000000 0.000000 0.000000 1.508882 5.721257 2.796549 -13.056297 -10.723580 -4.224256 5.134378 -10.908266 -4.840085 0.000000 0.000000 0.000000 0.803906 5.760178 1.908786 0.033178 1.126307 18.898635 1.037181 0.578331 -2.985983 -37.830195 2.071092 -9.679624 -22.527487 -30.226142 8.721033 0.000000 0.000000 0.000000 -0.780129 5.166071 2.335995 6.351090 1.589302 -1.168772 0.655108 2.991688 1.771586 37.898940 -48.978050 68.059283 -13.869980 30.543493 40.012563 0.000000 0.000000 0.000000 
7.511290 97.796616 7.207073 0.000000 0.000000 0.000000 -3.440486 21.766367 5.902082 -18.782926 -7.970151 -2.073763 22.243829 4.542433 -4.438151 -1.347768 8.842715 -1.451025 -1.163491 0.708377 -0.446095 0.000000 0.000000 0.000000 -3.341446 21.776199 5.502359 8.183009 -17.749766 -15.188906 18.246364 -12.705919 -0.415886 -8.983189 -27.811234 23.719054 -6.544174 0.394819 -0.070860 0.000000 0.000000 0.000000 1.658897 20.561120 4.566581 1.294748 4.644004 12.155404 6.615259 7.319917 -0.018497 0.736340 -0.946955 0.219574 0.000000 0.000000 0.000000 1.136552 6.939771 1.596164 -16.508118 -16.192652 -1.223789 7.747926 -16.582381 -3.347234 0.000000 0.000000 0.000000 0.249778 7.083395 0.379506 -1.245929 7.326693 17.361313 1.005478 -0.095476 -3.143403 -50.547027 5.946714 -13.243774 -27.444229 -30.510066 6.921793 0.000000 0.000000 0.000000 -0.812365 6.588024 0.951154 6.006269 1.543444 -1.511729 -0.223485 3.448510 2.602014 34.663412 -52.822265 70.993772 -14.131643 35.370435 39.165572 0.000000 0.000000 0.000000 
6.744541 97.494179 7.778690 0.000000 0.000000 0.000000 -1.516211 30.454338 4.404068 -23.444751 -12.183796 -2.835769 23.948641 2.880370 -4.884692 0.436309 7.634185 -1.660570 -1.068809 0.925007 -0.888159 0.000000 0.000000 0.000000 -1.540366 30.754443 4.135206 8.855427 -23.878481 -13.284668 17.626632 -13.308280 0.158089 -11.220052 -27.026698 23.627706 -6.782062 0.135425 0.388579 0.000000 0.000000 0.000000 3.489520 28.527226 3.200166 -1.015148 5.956168 10.874243 5.998262 8.440093 -1.421732 0.582223 -0.976579 0.128226 0.000000 0.000000 0.000000 1.023469 8.022161 0.144867 -19.963432 -21.153248 2.053964 10.164888 -20.957221 -1.482769 0.000000 0.000000 0.000000 -0.012985 8.201140 -1.214589 -1.974692 11.444830 13.577312 1.749648 -0.972462 -2.296245 -59.308151 7.434116 -18.573127 -31.922586 -29.332336 3.976898 0.000000 0.000000 0.000000 -0.564817 7.799980 -0.514127 5.709300 2.440730 -0.460904 -1.118235 4.173196 3.126574 27.399425 -51.139757 69.094528 -10.755769 38.800058 34.662520 0.000000 0.000000 0.000000 
5.967502 97.304047 8.064075 0.000000 0.000000 0.000000 0.885517 37.387209 2.821786 -28.208768 -15.854372 -4.360959 25.680905 1.829571 -5.134844 1.812179 6.979659 -0.784170 -0.672171 0.980638 -1.250636 0.000000 0.000000 0.000000 0.915537 38.139585 2.607133 8.641986 -29.269372 -11.925825 17.502968 -13.777097 0.824220 -14.045506 -26.289021 22.215284 -5.929693 -0.004506 0.592722 0.000000 0.000000 0.000000 5.171371 35.236307 1.810886 -2.941987 7.151446 9.333343 5.721693 9.391957 -2.632781 0.466659 -1.174144 0.018502 0.000000 0.000000 0.000000 1.199425 8.926691 -1.163881 -23.574908 -25.355957 4.755992 12.096042 -24.094073 0.433305 0.000000 0.000000 0.000000 -0.015054 9.158030 -2.460237 -2.207917 13.697354 8.034937 2.361710 -1.950381 -0.906952 -64.311934 8.073961 -24.513950 -35.766070 -27.420138 -0.060708 0.000000 0.000000 0.000000 0.005856 8.813635 -1.737147 5.398880 4.155298 1.612716 -2.090734 4.281507 3.367240 18.213292 -44.271814 63.334029 -4.446016 39.171500 27.283758 0.000000 0.000000 0.000000 
5.279645 97.194519 8.233143 0.000000 0.000000 0.000000 3.415493 42.622266 1.246964 -32.434400 -19.044079 -6.505527 26.842531 0.892921 -5.087078 2.644500 6.606260 0.117472 0.006187 0.916934 -1.690412 0.000000 0.000000 0.000000 3.469111 43.907164 1.039380 7.878602 -33.498806 -11.141408 17.881466 -13.899685 1.427544 -16.592505 -25.509128 20.362554 -4.987907 -0.057072 0.479115 0.000000 0.000000 0.000000 6.768713 40.754803 0.365233 -4.446776 8.160448 7.618720 5.745908 10.146918 -3.451964 0.269284 -1.147827 -0.020258 0.000000 0.000000 0.000000 1.762605 9.665329 -2.073152 -27.323402 -28.499055 6.241446 13.521616 -26.181560 2.130253 0.000000 0.000000 0.000000 0.210132 9.976373 -3.174480 -2.089813 14.457878 1.530044 2.269501 -2.135346 0.372254 -65.624314 9.334965 -29.563268 -39.009201 -26.820765 -5.400310 0.000000 0.000000 0.000000 0.807345 9.578714 -2.543168 5.045665 6.362754 3.929226 -3.174196 3.463220 3.005111 9.496672 -34.286416 55.847575 2.005627 36.342071 19.790946 0.000000 0.000000 0.000000 
4.718439 97.117790 8.153851 0.000000 0.000000 0.000000 5.791974 46.606346 -0.265124 -36.033933 -21.823023 -8.951222 27.276847 -0.136450 -4.751956 3.144000 6.176532 0.425211 0.122199 0.764767 -1.813123 0.000000 0.000000 0.000000 5.874903 48.297927 -0.580482 6.889652 -36.444056 -10.737648 18.746655 -13.544235 1.873748 -18.019239 -24.649128 18.930189 -4.657735 -0.075340 0.142369 0.000000 0.000000 0.000000 8.259562 45.637702 -1.147573 -5.431555 8.962065 5.870970 5.965795 10.710473 -3.891090 0.375291 -1.200963 -0.140663 0.000000 0.000000 0.000000 2.650860 10.213493 -2.515246 -30.817291 -30.399874 6.374310 14.508215 -27.165797 3.290329 0.000000 0.000000 0.000000 0.502957 10.641886 -3.388015 -1.839401 14.612333 -5.045383 1.255245 -1.500838 1.322057 -64.899774 12.812048 -32.895424 -41.589227 -28.486617 -11.840135 0.000000 0.000000 0.000000 1.685361 10.121591 -2.958179 4.722664 8.492438 5.695951 -4.484023 1.743952 2.591718 1.854863 -23.986463 47.915167 6.475803 31.721407 14.103532 0.000000 0.000000 0.000000 
